<svg xmlns="http://www.w3.org/2000/svg" viewBox="0 0 512 512">
  <defs>
    <linearGradient id="bgG" x1="0" y1="0" x2="0" y2="1">
      <stop offset="0" stop-color="#403aad"/>
      <stop offset="1" stop-color="#2a2472"/>
    </linearGradient>
    <linearGradient id="goldG" x1="0" y1="0" x2="0" y2="1">
      <stop offset="0" stop-color="#f9d267"/>
      <stop offset="1" stop-color="#dda017"/>
    </linearGradient>
  </defs>
  <rect width="512" height="512" rx="112" fill="url(#bgG)"/>
  <g fill="url(#goldG)">
    <rect x="132" y="118" width="248" height="40" rx="8"/>
    <path d="M154 172 H358 C364 250 316 348 256 408 C196 348 148 250 154 172 Z"/>
  </g>
  <g fill="#2f2880">
    <circle cx="176" cy="138" r="5"/><circle cx="216" cy="138" r="5"/><circle cx="256" cy="138" r="5"/>
    <circle cx="296" cy="138" r="5"/><circle cx="336" cy="138" r="5"/>
  </g>
  <path d="M178 196 H334 C339 258 300 334 256 380 C212 334 173 258 178 196 Z"
    fill="none" stroke="#2f2880" stroke-width="9"/>
  <circle cx="256" cy="244" r="24" fill="#2f2880"/>
  <circle cx="256" cy="244" r="10" fill="url(#goldG)"/>
  <g fill="#2f2880">
    <circle cx="256" cy="294" r="9"/>
    <circle cx="256" cy="324" r="7"/>
    <circle cx="256" cy="350" r="5"/>
  </g>
</svg>
