<svg xmlns="http://www.w3.org/2000/svg" viewBox="0 0 512 512">
  <defs>
    <radialGradient id="bg" cx="0.5" cy="0.45" r="0.85">
      <stop offset="0" stop-color="#4a1a72"/>
      <stop offset="0.6" stop-color="#280c42"/>
      <stop offset="1" stop-color="#140724"/>
    </radialGradient>
    <radialGradient id="halo" cx="0.5" cy="0.5" r="0.5">
      <stop offset="0" stop-color="#ffd86b" stop-opacity="0.45"/>
      <stop offset="1" stop-color="#ffd86b" stop-opacity="0"/>
    </radialGradient>
    <linearGradient id="goldG" x1="0" y1="0" x2="0" y2="1">
      <stop offset="0" stop-color="#ffe98a"/>
      <stop offset="0.5" stop-color="#f7b52e"/>
      <stop offset="1" stop-color="#dd8c12"/>
    </linearGradient>
    <filter id="glow" x="-60%" y="-60%" width="220%" height="220%">
      <feGaussianBlur stdDeviation="3.2" result="b"/>
      <feMerge><feMergeNode in="b"/><feMergeNode in="SourceGraphic"/></feMerge>
    </filter>
    <g id="burst">
      <g fill="#ef9f1c">
        <circle cx="22" cy="0" r="8.5"/><circle cx="15.6" cy="-15.6" r="8.5"/>
        <circle cx="0" cy="-22" r="8.5"/><circle cx="-15.6" cy="-15.6" r="8.5"/>
        <circle cx="-22" cy="0" r="8.5"/><circle cx="-15.6" cy="15.6" r="8.5"/>
        <circle cx="0" cy="22" r="8.5"/><circle cx="15.6" cy="15.6" r="8.5"/>
      </g>
      <circle r="19" fill="#f7b52e"/>
      <circle r="12.5" fill="#ffe488"/>
    </g>
    <g id="poms">
      <g fill="#18cc3a"><circle cx="128" cy="182" r="12"/><circle cx="118" cy="196" r="12"/><circle cx="134" cy="200" r="11"/></g>
      <g><circle cx="120" cy="256" r="12" fill="#ff2a3a"/><circle cx="110" cy="270" r="12" fill="#ff7a00"/><circle cx="128" cy="274" r="11" fill="#ffd60a"/></g>
      <g><circle cx="150" cy="326" r="11" fill="#ffffff"/><circle cx="140" cy="340" r="11" fill="#18cc3a"/><circle cx="158" cy="343" r="10" fill="#ffffff"/></g>
      <g><circle cx="196" cy="388" r="10" fill="#ff7a00"/><circle cx="206" cy="400" r="10" fill="#ffd60a"/><circle cx="190" cy="402" r="9" fill="#ff2a3a"/></g>
    </g>
  </defs>
  <rect width="512" height="512" fill="url(#bg)"/>
  <g transform="translate(46,52) scale(0.80)">
    <ellipse cx="256" cy="288" rx="185" ry="215" fill="url(#halo)"/>
    <g filter="url(#glow)">
      <use href="#poms"/>
      <use href="#poms" transform="translate(512,0) scale(-1,1)"/>
    </g>
    <path d="M150 152 L362 152 C374 250 322 372 256 438 C190 372 138 250 150 152 Z"
      fill="url(#goldG)" stroke="#b56d09" stroke-width="3"/>
    <path d="M150 152 L362 152 C374 250 322 372 256 438 C190 372 138 250 150 152 Z"
      fill="none" stroke="#fff2c4" stroke-width="7" stroke-linecap="round" stroke-dasharray="0.5 10"/>
    <path d="M168 168 L344 168 C352 250 306 356 256 412 C206 356 160 250 168 168 Z"
      fill="none" stroke="#c9860f" stroke-width="5" stroke-linecap="round" stroke-dasharray="0.5 11"/>
    <rect x="112" y="80" width="288" height="60" rx="12" fill="url(#goldG)"/>
    <rect x="122" y="90" width="268" height="40" rx="7" fill="#e11d2b"/>
    <g fill="#ffe488" stroke="#c9860f" stroke-width="1.5">
      <circle cx="152" cy="110" r="7"/><circle cx="204" cy="110" r="7"/><circle cx="256" cy="110" r="7"/>
      <circle cx="308" cy="110" r="7"/><circle cx="360" cy="110" r="7"/>
    </g>
    <use href="#burst" transform="translate(256,188)"/>
    <use href="#burst" transform="translate(198,220) scale(0.8)"/>
    <use href="#burst" transform="translate(314,220) scale(0.8)"/>
    <g filter="url(#glow)">
      <circle cx="256" cy="188" r="10" fill="#14e0ff"/>
      <circle cx="198" cy="220" r="8" fill="#ff2e88"/>
      <circle cx="314" cy="220" r="8" fill="#2bff88"/>
    </g>
    <g fill="#ffffff" opacity="0.85">
      <circle cx="252" cy="184" r="2.6"/><circle cx="195" cy="217" r="2.2"/><circle cx="311" cy="217" r="2.2"/>
    </g>
    <g fill="none" stroke="url(#goldG)" stroke-width="8" stroke-linecap="round">
      <path d="M224 262 Q256 280 288 262"/>
      <path d="M228 286 Q256 302 284 286"/>
      <path d="M232 308 Q256 322 280 308"/>
      <path d="M236 328 Q256 340 276 328"/>
      <path d="M240 346 Q256 356 272 346"/>
    </g>
    <g filter="url(#glow)">
      <circle cx="256" cy="280" r="5.5" fill="#ff2e88"/>
      <circle cx="256" cy="302" r="5" fill="#14e0ff"/>
      <circle cx="256" cy="322" r="4.5" fill="#2bff88"/>
      <circle cx="256" cy="340" r="4" fill="#ffd60a"/>
    </g>
    <use href="#burst" transform="translate(256,384) scale(0.62)"/>
    <circle cx="256" cy="384" r="7" fill="#ff7a1a" filter="url(#glow)"/>
    <rect x="252" y="438" width="8" height="16" rx="3" fill="url(#goldG)"/>
    <circle cx="256" cy="456" r="7" fill="#f7b52e"/>
    <g>
      <rect x="243" y="460" width="6" height="22" rx="3" fill="#e11d2b"/>
      <rect x="253" y="460" width="6" height="24" rx="3" fill="#ffd60a"/>
      <rect x="263" y="460" width="6" height="22" rx="3" fill="#18cc3a"/>
    </g>
  </g>
</svg>
